HIERARCHY
ROOT Hips
{
 OFFSET 0.000000 0.000000 0.000000
 CHANNELS 6 Xposition Yposition Zposition Yrotation Xrotation Zrotation
 JOINT Chest
 {
  OFFSET 0.000000 10.388337 0.005184
  CHANNELS 3 Yrotation Xrotation Zrotation
  JOINT Chest2
  {
   OFFSET 0.000000 10.458247 -0.010579
   CHANNELS 3 Yrotation Xrotation Zrotation
   JOINT Chest3
   {
    OFFSET 0.000000 10.415828 0.000000
    CHANNELS 3 Yrotation Xrotation Zrotation
    JOINT Chest4
    {
     OFFSET 0.000000 10.405206 0.000000
     CHANNELS 3 Yrotation Xrotation Zrotation
     JOINT Neck
     {
      OFFSET 0.000000 15.720090 0.000000
      CHANNELS 3 Yrotation Xrotation Zrotation
      JOINT Head
      {
       OFFSET 0.000000 9.732643 -0.022378
       CHANNELS 3 Yrotation Xrotation Zrotation
       End Site
       {
        OFFSET 0.000000 18.603619 -0.011814
       }
      }
     }
     JOINT RightCollar
     {
      OFFSET -3.167735 10.388953 0.000000
      CHANNELS 3 Yrotation Xrotation Zrotation
      JOINT RightShoulder
      {
       OFFSET -14.584825 0.000000 0.000000
       CHANNELS 3 Yrotation Xrotation Zrotation
       JOINT RightElbow
       {
        OFFSET 0.000000 -31.921689 0.000000
        CHANNELS 3 Yrotation Xrotation Zrotation
        JOINT RightWrist
        {
         OFFSET 0.000000 -25.835217 0.000000
         CHANNELS 3 Yrotation Xrotation Zrotation
         End Site
         {
          OFFSET 0.000000 -19.128920 0.000000
         }
        }
       }
      }
     }
     JOINT LeftCollar
     {
      OFFSET 3.167735 10.388953 0.000000
      CHANNELS 3 Yrotation Xrotation Zrotation
      JOINT LeftShoulder
      {
       OFFSET 14.584825 0.000000 0.000000
       CHANNELS 3 Yrotation Xrotation Zrotation
       JOINT LeftElbow
       {
        OFFSET 0.000000 -31.921689 0.000000
        CHANNELS 3 Yrotation Xrotation Zrotation
        JOINT LeftWrist
        {
         OFFSET 0.000000 -25.835217 0.000000
         CHANNELS 3 Yrotation Xrotation Zrotation
         End Site
         {
          OFFSET 0.000000 -19.128920 0.000000
         }
        }
       }
      }
     }
    }
   }
  }
 }
 JOINT RightHip
 {
  OFFSET -8.403278 -0.025659 -0.002592
  CHANNELS 3 Yrotation Xrotation Zrotation
  JOINT RightKnee
  {
   OFFSET 0.000000 -44.040977 0.002477
   CHANNELS 3 Yrotation Xrotation Zrotation
   JOINT RightAnkle
   {
    OFFSET 0.000000 -42.951162 0.004189
    CHANNELS 3 Yrotation Xrotation Zrotation
    JOINT RightToe
    {
     OFFSET 0.000000 -5.494238 12.197485
     CHANNELS 3 Yrotation Xrotation Zrotation
     End Site
     {
      OFFSET 0.000000 -1.538716 6.371628
     }
    }
   }
  }
 }
 JOINT LeftHip
 {
  OFFSET 8.403278 -0.025659 -0.002592
  CHANNELS 3 Yrotation Xrotation Zrotation
  JOINT LeftKnee
  {
   OFFSET 0.000000 -44.040977 0.002477
   CHANNELS 3 Yrotation Xrotation Zrotation
   JOINT LeftAnkle
   {
    OFFSET 0.000000 -42.951162 0.004189
    CHANNELS 3 Yrotation Xrotation Zrotation
    JOINT LeftToe
    {
     OFFSET 0.000000 -5.494238 12.197485
     CHANNELS 3 Yrotation Xrotation Zrotation
     End Site
     {
      OFFSET 0.000000 -1.538716 6.371628
     }
    }
   }
  }
 }
}
MOTION
Frames: 8
Frame Time: 0.008333
71.387560 91.419644 -38.884785 126.824758 6.368283 0.467429 4.905562 0.515082 -3.925315 0.201890 0.024554 -0.058251 0.356514 0.043501 -0.102812 5.442421 0.734204 -1.541151 -2.526690 12.742915 1.763200 -5.517198 -11.995015 4.378552 -2.536895 3.571849 0.987025 -7.777195 23.897019 -25.615256 -2.219767 0.941799 -1.099473 -2.946890 7.668684 -0.882739 7.075660 -4.229103 12.720315 7.383358 -3.779299 18.187829 93.664445 -52.020241 -147.734383 4.292116 -1.447364 -4.434432 -1.570372 -0.228006 -4.780506 -7.361039 33.396779 -2.864350 0.322666 -13.873646 1.240702 1.772161 -2.257725 6.892544 7.120443 -6.010226 -5.131084 17.242214 11.540720 3.760562 -7.981278 -14.241815 -3.920786 1.589343 3.126182 4.385301
71.439916 90.893933 -39.096744 126.464134 5.811723 0.098615 4.896949 0.881568 -3.781546 0.196680 0.025609 -0.060752 0.347420 0.045379 -0.107260 5.355968 0.772551 -1.624116 -2.416677 12.515701 1.876692 -5.369130 -12.415962 4.564216 -2.549847 3.312289 1.315711 -8.542563 24.236816 -25.511510 -2.935666 1.066737 -1.746991 -3.201541 6.928697 -1.439299 7.019589 -4.384091 12.446365 7.208690 -3.738913 18.230265 92.881432 -52.677638 -146.894757 4.139384 -1.176769 -4.346630 -1.322626 0.340494 -4.556867 -7.426777 34.590791 -3.204756 0.348570 -14.950901 0.904186 1.653184 -1.607612 6.367981 5.363801 -6.498672 -4.468613 17.040331 13.885963 3.547855 -5.838406 -17.358351 -2.876058 1.485624 5.012156 2.937939
71.428727 90.380663 -39.238777 126.153405 5.240528 -0.068435 4.860012 1.312358 -3.829992 0.195312 0.030125 -0.066437 0.344969 0.053363 -0.117280 5.301232 0.897960 -1.767564 -2.322044 12.215709 2.030075 -5.272023 -12.968371 4.837098 -2.588315 2.933905 1.722194 -9.263433 24.510944 -25.277450 -3.652616 1.202130 -2.432681 -3.494527 6.057730 -2.081050 6.882342 -4.658594 12.038295 6.935616 -3.610324 18.349818 91.958147 -53.595286 -145.732111 3.902513 -0.722461 -4.282990 -0.886149 0.864764 -4.475164 -7.705312 35.819307 -3.641142 0.365689 -16.107358 0.574218 1.484317 -1.009158 5.668523 3.271145 -7.318321 -4.018340 16.617373 16.754899 3.303795 -2.950429 -20.119067 -2.010769 1.242446 6.018669 1.757101
71.345661 89.883302 -39.301574 125.918210 4.699347 -0.038471 4.776213 1.751706 -3.985922 0.197956 0.039068 -0.078380 0.349414 0.069139 -0.138260 5.260612 1.128215 -2.035897 -2.235247 11.878120 2.218887 -5.208409 -13.587616 5.184098 -2.657870 2.467426 2.171703 -9.865197 24.680762 -24.809052 -4.389933 1.353596 -3.213773 -3.767991 5.108936 -2.780746 6.688156 -5.032381 11.461301 6.527878 -3.389209 18.585497 90.889476 -54.757011 -144.222830 3.608979 -0.146659 -4.223170 -0.368046 1.277731 -4.513408 -8.177199 37.100625 -4.221941 0.427648 -17.319802 0.248929 1.316545 -0.486367 5.107560 0.865684 -8.578262 -3.806794 16.502604 20.166585 3.273458 0.155253 -22.417294 -1.564465 1.019599 6.196599 0.891533
71.186385 89.399692 -39.288497 125.839755 4.198926 0.210217 4.607773 2.133322 -4.163012 0.204326 0.054863 -0.100637 0.360154 0.096934 -0.177249 5.195268 1.500080 -2.492764 -2.155174 11.558814 2.422703 -5.164432 -14.171332 5.562520 -2.763829 1.992366 2.618797 -10.300326 24.676953 -24.030212 -5.171066 1.529612 -4.123282 -3.963029 4.120504 -3.525802 6.453390 -5.395027 10.694184 6.004420 -3.132102 18.949192 89.608336 -56.138470 -142.328512 3.281227 0.472931 -4.147300 0.051338 1.554837 -4.682181 -8.806615 38.450227 -4.998377 0.550022 -18.562657 -0.056975 1.147303 -0.054333 4.654018 -1.400071 -10.209299 -3.849826 16.942863 23.969381 3.645833 2.624043 -24.136191 -1.539611 0.920591 5.645681 0.334958
70.963885 88.924148 -39.202172 125.865012 3.708166 0.600802 4.422171 2.460502 -4.300163 0.214930 0.078247 -0.133410 0.377994 0.137944 -0.234442 5.105256 1.991181 -3.091166 -2.088752 11.290121 2.621029 -5.142238 -14.660386 5.933834 -2.931306 1.630756 3.002142 -10.547933 24.417116 -22.922139 -6.019454 1.722669 -5.124611 -4.044361 3.091905 -4.327676 6.182480 -5.552944 9.766987 5.440765 -2.954866 19.381868 88.012579 -57.719034 -139.999573 2.943812 1.081211 -4.054005 0.421027 1.701607 -4.917610 -9.542703 39.905471 -5.914522 0.688387 -19.731555 -0.344159 0.951578 0.214032 4.262623 -2.654179 -11.971641 -4.105932 17.542914 27.877507 4.403153 4.039493 -25.168658 -1.751208 0.880703 4.472393 0.013377
70.676527 88.453376 -39.020541 126.027734 3.382387 0.969908 4.168085 2.656551 -4.370855 0.227205 0.104456 -0.170636 0.398547 0.183730 -0.299138 5.004438 2.475321 -3.691396 -2.039975 11.055631 2.812901 -5.149951 -15.084911 6.298947 -3.164787 1.466354 3.250952 -10.617449 23.880804 -21.530237 -6.985593 1.894603 -6.106764 -4.016805 1.995768 -5.207648 5.882620 -5.356851 8.771863 4.950309 -2.938817 19.742210 85.972214 -59.509205 -137.145140 2.635942 1.651614 -3.962860 0.752013 1.534760 -5.065916 -10.315903 41.500110 -6.853493 0.735760 -20.764659 -0.633603 0.732773 0.313432 3.908512 -2.931848 -13.871812 -4.285816 18.161969 31.714043 5.248807 4.378039 -25.770512 -1.914020 0.854024 3.027568 -0.134406
70.336837 87.986657 -38.754136 126.403217 3.252856 1.235122 3.776258 2.720415 -4.364876 0.235071 0.128767 -0.205014 0.411411 0.226050 -0.358680 4.861695 2.878312 -4.197480 -2.000151 10.824218 3.007705 -5.177326 -15.502474 6.674511 -3.397200 1.519257 3.313193 -10.593739 23.126691 -19.943275 -8.120608 1.983479 -6.946588 -3.939944 0.807047 -6.176317 5.560833 -4.797082 7.792225 4.630008 -3.069553 19.925104 83.242921 -61.508705 -133.524430 2.397568 2.185764 -3.909543 0.923292 1.035661 -5.055027 -11.079969 43.208298 -7.779693 0.667213 -21.645767 -0.933481 0.501494 0.281134 3.583637 -3.244212 -15.950464 -4.113788 19.282099 35.425671 6.020851 4.040544 -26.080131 -1.875107 0.724891 1.469095 -0.221609
